<?xml version="1.0" encoding="UTF-8"?>
<svg version="1.1" xmlns="http://www.w3.org/2000/svg" width="128" height="128">
<path d="M0 0 C9.47463573 6.94911196 16.95161439 16.64389635 19.421875 28.35546875 C20.71840454 42.36291128 19.58515159 54.65161646 11.046875 66.29296875 C3.79710687 74.80019131 -6.14121373 82.4819878 -17.66186523 83.54833984 C-32.20672027 84.0750382 -44.10662342 82.99872375 -55.65625 73.15625 C-63.78698313 65.53781916 -70.43729869 55.48683287 -70.8515625 44.046875 C-71.2686331 29.19654597 -69.07220246 17.55522171 -58.578125 6.35546875 C-43.56002846 -9.51550735 -18.09084176 -11.53976422 0 0 Z " fill="#FF9A6D" transform="translate(89.578125,25.64453125)"/>
<path d="M0 0 C3 0.125 3 0.125 4 1.125 C4.08685603 2.68672745 4.10702219 4.25229344 4.09765625 5.81640625 C4.09443359 6.76064453 4.09121094 7.70488281 4.08789062 8.67773438 C4.07951172 9.67095703 4.07113281 10.66417969 4.0625 11.6875 C4.05798828 12.68458984 4.05347656 13.68167969 4.04882812 14.70898438 C4.03700007 17.18104849 4.02051849 19.65299518 4 22.125 C4.63091553 22.11976318 5.26183105 22.11452637 5.91186523 22.10913086 C8.75373347 22.08842174 11.59558588 22.07535934 14.4375 22.0625 C15.92733398 22.04993164 15.92733398 22.04993164 17.44726562 22.03710938 C18.86362305 22.03227539 18.86362305 22.03227539 20.30859375 22.02734375 C21.62041626 22.01948853 21.62041626 22.01948853 22.95874023 22.01147461 C25 22.125 25 22.125 26 23.125 C26.125 26.125 26.125 26.125 26 29.125 C25 30.125 25 30.125 22.95874023 30.23852539 C22.08419189 30.23328857 21.20964355 30.22805176 20.30859375 30.22265625 C19.36435547 30.21943359 18.42011719 30.21621094 17.44726562 30.21289062 C16.45404297 30.20451172 15.46082031 30.19613281 14.4375 30.1875 C13.44041016 30.18298828 12.44332031 30.17847656 11.41601562 30.17382812 C8.94395151 30.16200007 6.47200482 30.14551849 4 30.125 C4.00785522 31.07137329 4.00785522 31.07137329 4.01586914 32.03686523 C4.03657826 34.87873347 4.04964066 37.72058588 4.0625 40.5625 C4.07087891 41.55572266 4.07925781 42.54894531 4.08789062 43.57226562 C4.09272461 44.98862305 4.09272461 44.98862305 4.09765625 46.43359375 C4.10551147 47.74541626 4.10551147 47.74541626 4.11352539 49.08374023 C4 51.125 4 51.125 3 52.125 C0 52.25 0 52.25 -3 52.125 C-4 51.125 -4 51.125 -4.11352539 49.08374023 C-4.10828857 48.20919189 -4.10305176 47.33464355 -4.09765625 46.43359375 C-4.09443359 45.48935547 -4.09121094 44.54511719 -4.08789062 43.57226562 C-4.07951172 42.57904297 -4.07113281 41.58582031 -4.0625 40.5625 C-4.05798828 39.56541016 -4.05347656 38.56832031 -4.04882812 37.54101562 C-4.03700007 35.06895151 -4.02051849 32.59700482 -4 30.125 C-4.63091553 30.13023682 -5.26183105 30.13547363 -5.91186523 30.14086914 C-8.75373347 30.16157826 -11.59558588 30.17464066 -14.4375 30.1875 C-15.92733398 30.20006836 -15.92733398 30.20006836 -17.44726562 30.21289062 C-18.39150391 30.21611328 -19.33574219 30.21933594 -20.30859375 30.22265625 C-21.62041626 30.23051147 -21.62041626 30.23051147 -22.95874023 30.23852539 C-25 30.125 -25 30.125 -26 29.125 C-26.125 26.125 -26.125 26.125 -26 23.125 C-25 22.125 -25 22.125 -22.95874023 22.01147461 C-22.08419189 22.01671143 -21.20964355 22.02194824 -20.30859375 22.02734375 C-19.36435547 22.03056641 -18.42011719 22.03378906 -17.44726562 22.03710938 C-15.95743164 22.04967773 -15.95743164 22.04967773 -14.4375 22.0625 C-13.44041016 22.06701172 -12.44332031 22.07152344 -11.41601562 22.07617188 C-8.94395151 22.08799993 -6.47200482 22.10448151 -4 22.125 C-4.00785522 21.17862671 -4.00785522 21.17862671 -4.01586914 20.21313477 C-4.03657826 17.37126653 -4.04964066 14.52941412 -4.0625 11.6875 C-4.07087891 10.69427734 -4.07925781 9.70105469 -4.08789062 8.67773438 C-4.09272461 7.26137695 -4.09272461 7.26137695 -4.09765625 5.81640625 C-4.10551147 4.50458374 -4.10551147 4.50458374 -4.11352539 3.16625977 C-3.92954672 -0.14179542 -3.37414143 0.14058923 0 0 Z " fill="#FFFDFD" transform="translate(64,37.875)"/>
</svg>
